<svg xmlns="http://www.w3.org/2000/svg" version="1.1" viewBox="-5.0 -10.0 110.0 135.0">
 <path d="m78 83v3h-53c-1.8633 0-3.4297-1.2734-3.875-3z"/>
 <path d="m78 81h-56.875c0.44531-1.7266 2.0117-3 3.875-3h51c0.6875 0 1.3555-0.078125 2-0.22266z"/>
 <path d="m27 21c0-0.55078 0.44922-1 1-1h44c0.55078 0 1 0.44922 1 1v42c0 0.55078-0.44922 1-1 1h-44c-0.55078 0-1-0.44922-1-1zm16 15c-0.55078 0-1 0.44922-1 1s0.44922 1 1 1h14c0.55078 0 1-0.44922 1-1s-0.44922-1-1-1zm-6 6c-0.55078 0-1 0.44922-1 1s0.44922 1 1 1h26c0.55078 0 1-0.44922 1-1s-0.44922-1-1-1zm0 6c-0.55078 0-1 0.44922-1 1s0.44922 1 1 1h26c0.55078 0 1-0.44922 1-1s-0.44922-1-1-1z" fill-rule="evenodd"/>
 <path d="m82 88h-57c-3.3125 0-6-2.6875-6-6s2.6875-6 6-6h51c0.92969 0 1.8125-0.17969 2.625-0.50781 2.5664-1.0391 4.375-3.5547 4.375-6.4922v-52c0-3.8672-3.1328-7-7-7h-52c-3.8672 0-7 3.1328-7 7v66c0 3.8672 3.1328 7 7 7h58c0.55078 0 1-0.44922 1-1s-0.44922-1-1-1zm-54-70c-1.6562 0-3 1.3438-3 3v42c0 1.6562 1.3438 3 3 3h44c1.6562 0 3-1.3438 3-3v-42c0-1.6562-1.3438-3-3-3z" fill-rule="evenodd"/>
</svg>