<svg xmlns="http://www.w3.org/2000/svg" xmlns:xlink="http://www.w3.org/1999/xlink" xmlns:serif="http://www.serif.com/" viewBox="0 0 96 120" version="1.1" xml:space="preserve" style="" x="0px" y="0px" fill-rule="evenodd" clip-rule="evenodd" stroke-linejoin="round" stroke-miterlimit="2"><g transform="matrix(2.00001,0,0,2,-480,-240)">
 <path d="M285.5,129.5C285.5,129.224 285.276,129 285,129L243,129C242.724,129 242.5,129.224 242.5,129.5L242.5,158.5C242.5,158.776 242.724,159 243,159L285,159C285.276,159 285.5,158.776 285.5,158.5L285.5,129.5ZM263.5,130L263.5,158L243.5,158L243.5,130L263.5,130ZM264.5,130L284.5,130L284.5,158L264.5,158L264.5,130ZM267,155C267,155.276 267.224,155.5 267.5,155.5L273,155.5C273.276,155.5 273.5,155.276 273.5,155L273.5,145C273.5,144.844 273.427,144.697 273.303,144.603C273.18,144.508 273.019,144.477 272.868,144.518L267.368,146.018C267.151,146.077 267,146.275 267,146.5L267,155ZM274.5,155C274.5,155.276 274.724,155.5 275,155.5L281.5,155.5C281.776,155.5 282,155.276 282,155L282,143C282,142.848 281.931,142.704 281.811,142.609C281.692,142.514 281.536,142.479 281.388,142.513L274.888,144.013C274.661,144.065 274.5,144.267 274.5,144.5L274.5,155ZM261,146C261,145.724 260.776,145.5 260.5,145.5L246.5,145.5C246.224,145.5 246,145.724 246,146L246,155C246,155.276 246.224,155.5 246.5,155.5L260.5,155.5C260.776,155.5 261,155.276 261,155L261,146ZM281.605,140.989C281.835,140.94 282,140.736 282,140.5L282,133C282,132.724 281.776,132.5 281.5,132.5L267.5,132.5C267.224,132.5 267,132.724 267,133L267,143.5C267,143.651 267.068,143.794 267.186,143.889C267.303,143.984 267.457,144.021 267.605,143.989L281.605,140.989ZM261,140C261,139.724 260.776,139.5 260.5,139.5L255,139.5C254.724,139.5 254.5,139.724 254.5,140L254.5,143C254.5,143.276 254.724,143.5 255,143.5L260.5,143.5C260.776,143.5 261,143.276 261,143L261,140ZM253.5,133C253.5,132.724 253.276,132.5 253,132.5L246.5,132.5C246.224,132.5 246,132.724 246,133L246,143C246,143.276 246.224,143.5 246.5,143.5L253,143.5C253.276,143.5 253.5,143.276 253.5,143L253.5,133ZM261,133C261,132.724 260.776,132.5 260.5,132.5L255,132.5C254.724,132.5 254.5,132.724 254.5,133L254.5,138C254.5,138.276 254.724,138.5 255,138.5L260.5,138.5C260.776,138.5 261,138.276 261,138L261,133Z"/></g>
</svg>