<svg xmlns="http://www.w3.org/2000/svg" version="1.1" viewBox="-5.0 -10.0 110.0 135.0">
 <path d="m51.898 25.047 9.0234-9.0234c1.8359-1.8359 1.8359-4.8125 0-6.6484l-0.042969-0.042969c-1.8203-1.8203-4.7656-1.8398-6.6094-0.042969l-15.668 15.281-15.203-15.199c-1.8359-1.8359-4.8125-1.8359-6.6484 0-1.8359 1.8359-1.8359 4.8125 0 6.6484l9.0234 9.0234-18.57 0.003906c-2.5977 0-4.7031 2.1055-4.7031 4.7031v52.844c0 2.5977 2.1055 4.7031 4.7031 4.7031h4.7969v0.046875c0 2.5977 2.1055 4.7031 4.7031 4.7031h0.09375c2.5977 0 4.7031-2.1055 4.7031-4.7031v-0.046875h57v0.046875c0 2.5977 2.1055 4.7031 4.7031 4.7031h0.09375c2.5977 0 4.7031-2.1055 4.7031-4.7031v-0.046875h4.7969c2.5977 0 4.7031-2.1055 4.7031-4.7031v-52.844c0-2.5977-2.1055-4.7031-4.7031-4.7031zm17.102 48c0 2.375-2.375 4.75-4.75 4.75h-47.5c-2.375 0-4.75-1.8984-4.75-4.75v-33.75c0-2.375 2.375-4.75 4.75-4.75h47.5c2.375 0 4.75 1.8984 4.75 4.75zm14.25-10c-2.375 0-4.75-1.8984-4.75-4.75 0-2.375 2.375-4.75 4.75-4.75s4.75 1.8984 4.75 4.75-2.375 4.75-4.75 4.75zm0-19c-2.375 0-4.75-1.8984-4.75-4.75 0-2.375 2.375-4.75 4.75-4.75s4.75 1.8984 4.75 4.75-2.375 4.75-4.75 4.75z"/>
</svg>