<svg xmlns="http://www.w3.org/2000/svg" version="1.1" viewBox="-5.0 -10.0 110.0 135.0">
 <path d="m78.906 7.0781c0-2.957-2.3984-5.3555-5.3555-5.3555s-5.3594 2.3984-5.3594 5.3555v6.3125c0 0.98438-0.80078 1.7852-1.7852 1.7852l-9.2617 0.003907c-6.9023 0-12.5 5.5977-12.5 12.5v6.3125h-14.75c-10.918 0-20.09 8.2109-21.297 19.062l-2.9961 26.941c-1.082 9.7539 6.5508 18.281 16.363 18.281 6.2383 0 11.938-3.5234 14.727-9.1016l2.5938-5.1836h21.43l2.5938 5.1836c2.7891 5.5781 8.4883 9.1016 14.727 9.1016 9.8125 0 17.449-8.5312 16.363-18.281l-2.9922-26.941c-1.207-10.852-10.379-19.062-21.297-19.062h-14.754v-6.3125c0-0.98438 0.80078-1.7852 1.7852-1.7852h9.2617c6.9023 0 12.5-5.5977 12.5-12.5zm-47.656 40.309c2.4648 0 4.4648 2 4.4648 4.4648v3.8711h3.8711c2.4648 0 4.4648 2 4.4648 4.4648s-2 4.4648-4.4648 4.4648l-3.8711-0.003906v3.8672c0 2.4648-2 4.4648-4.4648 4.4648s-4.4648-2-4.4648-4.4648v-3.8672h-3.8672c-2.4648 0-4.4648-2-4.4648-4.4648s2-4.4648 4.4648-4.4648h3.8672v-3.8711c0-2.4648 2-4.4648 4.4648-4.4648zm34.934 21.727c2.4648 0 4.4648-2 4.4648-4.4648 0-2.4648-2-4.4648-4.4648-4.4648s-4.4648 2-4.4648 4.4648c0 2.4648 2 4.4648 4.4648 4.4648zm13.395-15.531c0 2.4648-2 4.4648-4.4648 4.4648-2.4648 0-4.4648-2-4.4648-4.4648 0-2.4648 2-4.4648 4.4648-4.4648 2.4648 0 4.4648 2 4.4648 4.4648z" fill-rule="evenodd"/>
</svg>