<svg xmlns="http://www.w3.org/2000/svg" version="1.1" viewBox="-5.0 -10.0 110.0 135.0">
 <path d="m89.121 2.5h-78.242c-4.6172 0-8.3789 3.7617-8.3789 8.3984v78.223c0 4.6172 3.7617 8.3789 8.3789 8.3789h78.242c4.6172 0 8.3789-3.7617 8.3789-8.3789v-78.223c0-4.6367-3.7617-8.3984-8.3789-8.3984zm-58.711 80.637c0 1.0508-0.85156 1.8984-1.8984 1.8984l-14.488 0.003906c-1.0508 0-1.8984-0.85156-1.8984-1.8984v-14.492c0-1.0508 0.85156-1.8984 1.8984-1.8984h14.488c1.0508 0 1.8984 0.85156 1.8984 1.8984zm0-25.887c0 1.0508-0.85156 1.8984-1.8984 1.8984h-14.488c-1.0508 0-1.8984-0.85156-1.8984-1.8984v-14.488c0-1.0508 0.85156-1.8984 1.8984-1.8984h14.488c1.0508 0 1.8984 0.85156 1.8984 1.8984zm0-25.887c0 1.0508-0.85156 1.8984-1.8984 1.8984h-14.488c-1.0508 0-1.8984-0.85156-1.8984-1.8984v-14.488c0-1.0508 0.85156-1.8984 1.8984-1.8984h14.488c1.0508 0 1.8984 0.85156 1.8984 1.8984zm28.238 21.785-12.617 9.4297c-0.69531 0.51953-1.5156 0.78516-2.3438 0.78516-0.59766 0-1.1992-0.14062-1.7617-0.41797-1.3359-0.66797-2.1641-2.0117-2.1641-3.5078l0.003906-18.863c0-1.4922 0.82812-2.8359 2.1641-3.5039 1.3359-0.66797 2.9062-0.52734 4.1016 0.36719l12.617 9.4297c1 0.74609 1.5742 1.8906 1.5742 3.1406 0.003906 1.2461-0.57031 2.3906-1.5742 3.1406zm29.219 29.988c0 1.0508-0.85156 1.8984-1.8984 1.8984l-14.488 0.003906c-1.0508 0-1.8984-0.85156-1.8984-1.8984v-14.492c0-1.0508 0.85156-1.8984 1.8984-1.8984h14.488c1.0508 0 1.8984 0.85156 1.8984 1.8984zm0-25.887c0 1.0508-0.85156 1.8984-1.8984 1.8984h-14.488c-1.0508 0-1.8984-0.85156-1.8984-1.8984v-14.488c0-1.0508 0.85156-1.8984 1.8984-1.8984h14.488c1.0508 0 1.8984 0.85156 1.8984 1.8984zm0-25.887c0 1.0508-0.85156 1.8984-1.8984 1.8984h-14.488c-1.0508 0-1.8984-0.85156-1.8984-1.8984v-14.488c0-1.0508 0.85156-1.8984 1.8984-1.8984h14.488c1.0508 0 1.8984 0.85156 1.8984 1.8984z"/>
</svg>